<mxfile host="app.diagrams.net" modified="2023-11-02T02:01:54.659Z" agent="Mozilla/5.0 (Windows NT 10.0; Win64; x64; rv:109.0) Gecko/20100101 Firefox/119.0" etag="430Y8w-favFoVJ1Cp5If" version="22.0.8" type="device">
  <diagram name="Page-1" id="r9ghmuHlGUQCW_Mqv6eB">
    <mxGraphModel dx="880" dy="470" grid="1" gridSize="10" guides="1" tooltips="1" connect="1" arrows="1" fold="1" page="1" pageScale="1" pageWidth="850" pageHeight="1100" math="0" shadow="0">
      <root>
        <mxCell id="0" />
        <mxCell id="1" parent="0" />
        <mxCell id="4HuO00THNd12_52IMR-M-6" value="" style="edgeStyle=orthogonalEdgeStyle;rounded=0;orthogonalLoop=1;jettySize=auto;html=1;" edge="1" parent="1" source="4HuO00THNd12_52IMR-M-2">
          <mxGeometry relative="1" as="geometry">
            <mxPoint x="410" y="150" as="targetPoint" />
            <Array as="points">
              <mxPoint x="410" y="140" />
              <mxPoint x="410" y="140" />
            </Array>
          </mxGeometry>
        </mxCell>
        <mxCell id="4HuO00THNd12_52IMR-M-2" value="Main" style="rounded=1;whiteSpace=wrap;html=1;arcSize=50;" vertex="1" parent="1">
          <mxGeometry x="350" y="80" width="120" height="40" as="geometry" />
        </mxCell>
        <mxCell id="4HuO00THNd12_52IMR-M-14" value="" style="edgeStyle=orthogonalEdgeStyle;rounded=0;orthogonalLoop=1;jettySize=auto;html=1;" edge="1" parent="1" source="4HuO00THNd12_52IMR-M-9">
          <mxGeometry relative="1" as="geometry">
            <mxPoint x="410" y="240" as="targetPoint" />
          </mxGeometry>
        </mxCell>
        <mxCell id="4HuO00THNd12_52IMR-M-9" value="integer bilangnan" style="shape=internalStorage;whiteSpace=wrap;html=1;backgroundOutline=1;dx=10;dy=10;" vertex="1" parent="1">
          <mxGeometry x="345" y="150" width="130" height="50" as="geometry" />
        </mxCell>
        <mxCell id="4HuO00THNd12_52IMR-M-19" value="" style="edgeStyle=orthogonalEdgeStyle;rounded=0;orthogonalLoop=1;jettySize=auto;html=1;" edge="1" parent="1" source="4HuO00THNd12_52IMR-M-17" target="4HuO00THNd12_52IMR-M-18">
          <mxGeometry relative="1" as="geometry" />
        </mxCell>
        <mxCell id="4HuO00THNd12_52IMR-M-17" value="input bilangan" style="shape=parallelogram;perimeter=parallelogramPerimeter;whiteSpace=wrap;html=1;fixedSize=1;" vertex="1" parent="1">
          <mxGeometry x="340" y="240" width="140" height="30" as="geometry" />
        </mxCell>
        <mxCell id="4HuO00THNd12_52IMR-M-20" style="edgeStyle=orthogonalEdgeStyle;rounded=0;orthogonalLoop=1;jettySize=auto;html=1;entryX=0.5;entryY=0;entryDx=0;entryDy=0;" edge="1" parent="1" source="4HuO00THNd12_52IMR-M-18" target="4HuO00THNd12_52IMR-M-25">
          <mxGeometry relative="1" as="geometry">
            <mxPoint x="520" y="400" as="targetPoint" />
            <Array as="points">
              <mxPoint x="530" y="340" />
            </Array>
          </mxGeometry>
        </mxCell>
        <mxCell id="4HuO00THNd12_52IMR-M-38" style="edgeStyle=orthogonalEdgeStyle;rounded=0;orthogonalLoop=1;jettySize=auto;html=1;exitX=0;exitY=0.5;exitDx=0;exitDy=0;entryX=0.5;entryY=0;entryDx=0;entryDy=0;" edge="1" parent="1" source="4HuO00THNd12_52IMR-M-18" target="4HuO00THNd12_52IMR-M-27">
          <mxGeometry relative="1" as="geometry">
            <mxPoint x="330" y="350" as="targetPoint" />
          </mxGeometry>
        </mxCell>
        <mxCell id="4HuO00THNd12_52IMR-M-18" value="bilangqn mod 2=0" style="rhombus;whiteSpace=wrap;html=1;" vertex="1" parent="1">
          <mxGeometry x="350" y="300" width="120" height="80" as="geometry" />
        </mxCell>
        <mxCell id="4HuO00THNd12_52IMR-M-47" style="edgeStyle=orthogonalEdgeStyle;rounded=0;orthogonalLoop=1;jettySize=auto;html=1;exitX=0.5;exitY=1;exitDx=0;exitDy=0;" edge="1" parent="1" source="4HuO00THNd12_52IMR-M-25">
          <mxGeometry relative="1" as="geometry">
            <mxPoint x="440" y="510" as="targetPoint" />
            <Array as="points">
              <mxPoint x="530" y="510" />
              <mxPoint x="531" y="510" />
            </Array>
          </mxGeometry>
        </mxCell>
        <mxCell id="4HuO00THNd12_52IMR-M-25" value="&lt;div&gt;output bilangan &amp;amp; &quot; adalah&lt;/div&gt;&lt;div&gt;bilangan genap &quot;&lt;br&gt;&lt;/div&gt;" style="shape=parallelogram;perimeter=parallelogramPerimeter;whiteSpace=wrap;html=1;fixedSize=1;" vertex="1" parent="1">
          <mxGeometry x="440" y="400" width="180" height="40" as="geometry" />
        </mxCell>
        <mxCell id="4HuO00THNd12_52IMR-M-41" style="edgeStyle=orthogonalEdgeStyle;rounded=0;orthogonalLoop=1;jettySize=auto;html=1;exitX=0.5;exitY=1;exitDx=0;exitDy=0;" edge="1" parent="1" source="4HuO00THNd12_52IMR-M-27">
          <mxGeometry relative="1" as="geometry">
            <mxPoint x="410" y="510" as="targetPoint" />
            <Array as="points">
              <mxPoint x="310" y="510" />
            </Array>
          </mxGeometry>
        </mxCell>
        <mxCell id="4HuO00THNd12_52IMR-M-27" value="&lt;div&gt;output bilangan &amp;amp; &quot; adalah&lt;/div&gt;&lt;div&gt;bilangan gnajil &quot;&lt;br&gt;&lt;/div&gt;" style="shape=parallelogram;perimeter=parallelogramPerimeter;whiteSpace=wrap;html=1;fixedSize=1;size=20;" vertex="1" parent="1">
          <mxGeometry x="220" y="400" width="180" height="40" as="geometry" />
        </mxCell>
        <mxCell id="4HuO00THNd12_52IMR-M-32" value="True" style="text;html=1;align=center;verticalAlign=middle;resizable=0;points=[];autosize=1;strokeColor=none;fillColor=none;" vertex="1" parent="1">
          <mxGeometry x="475" y="308" width="50" height="30" as="geometry" />
        </mxCell>
        <mxCell id="4HuO00THNd12_52IMR-M-49" style="edgeStyle=orthogonalEdgeStyle;rounded=0;orthogonalLoop=1;jettySize=auto;html=1;" edge="1" parent="1" source="4HuO00THNd12_52IMR-M-48">
          <mxGeometry relative="1" as="geometry">
            <mxPoint x="425" y="580" as="targetPoint" />
          </mxGeometry>
        </mxCell>
        <mxCell id="4HuO00THNd12_52IMR-M-48" value="" style="ellipse;whiteSpace=wrap;html=1;" vertex="1" parent="1">
          <mxGeometry x="415" y="500" width="20" height="20" as="geometry" />
        </mxCell>
        <mxCell id="4HuO00THNd12_52IMR-M-51" value="end" style="rounded=1;whiteSpace=wrap;html=1;arcSize=50;" vertex="1" parent="1">
          <mxGeometry x="370" y="560" width="120" height="40" as="geometry" />
        </mxCell>
        <mxCell id="4HuO00THNd12_52IMR-M-53" value="false" style="text;html=1;align=center;verticalAlign=middle;resizable=0;points=[];autosize=1;strokeColor=none;fillColor=none;" vertex="1" parent="1">
          <mxGeometry x="285" y="308" width="50" height="30" as="geometry" />
        </mxCell>
      </root>
    </mxGraphModel>
  </diagram>
</mxfile>
